<svg xmlns="http://www.w3.org/2000/svg"><g class="layer"><path d="M3456 2304H0V0h3456v2304" fill="#231f20"/><path d="M1225.333 704.8c-21.244 58.613-31.185 110.4-31.185 145.333h1091.945c0-35.4-8.64-87.8-29.946-145.333" fill="#ee3320"/><path d="M2245.773 680.28C2184 529.987 2038.907 360.16 1736 360.16c-297.707 0-442.1 171.72-503.325 320.12" fill="#f8df0a"/><path d="M1194.148 964h1091.945s-95.146 468.84-545.973 461.333C1260 1417.333 1194.148 964 1194.148 964M1743.56 1561.427c44.387.08 91.493-5.347 140-18.96l-10.04-104.747c-44.693 10.387-87.44 14.747-127.307 15.013l-2.653 108.694" fill="#fff"/><path d="M1576.547 1429.413C1506.387 1409.48 1464 1384 1464 1384c-10.587 13.707-25.64 45.667-40.267 83.333 0 0 50.507 34.587 131.147 61.827l21.667-99.747M1607 1437.227c33.187 7.64 71.093 13.466 112.587 15.08l-3.694 108.36c-46.88-2.467-90.24-10.76-128.426-21.44l19.533-102M1912.893 1533.28c43.294-15.013 87.494-36.827 131.694-67.28-9.36-36.653-19.8-69.4-27.254-82-39.4 20.587-78.106 35.693-115.626 46.413l11.186 102.867M2066.707 1624.427c2.72 171.493-63.56 368.906-357.374 368.906-305.28 0-352.466-210.64-327.213-368.08 386.32 304.08 684.587-.826 684.587-.826" fill="#fff"/><path d="M1712.44 1732.173c-50.347-3.213-105.32-15.786-164.413-41.8l30.613-125.2c48.293 13.52 94.667 19.774 138.227 20.96l-4.427 146.04M1551.293 1556.787c-44.626-14.867-90.706-36.12-137.56-65.387-10.04 30.547-19.52 69.307-26.053 100.093 46.44 36.76 91.053 65.04 133.64 86.32l29.973-121.026M1742.667 1733c61.64-.547 115.613-14.893 160.853-34.573l-16.627-132.694c-42.133 11.267-90.8 19.574-144.24 20.52l.014 146.747M1931.96 1684.827c85.333-44.574 132.6-103.947 132.6-103.947-2.52-31.067-6.987-60.547-12.373-86.96 0 0-50.867 35.693-134.494 62.707l14.267 128.2" fill="#fff"/><path d="M1962.667 982.667c98.226 0 153.333 81.777 153.333 144 0 48-26.667 142.666-153.333 142.666-126.667 0-153.334-105.333-153.334-136 0-30.666 17.334-150.666 153.334-150.666M1524 992c111.107 0 160 83.11 160 134 0 63.777-49.773 151.333-160 151.333-122.667 0-154.667-103.556-154.667-142.666 0-37.334 29.334-142.667 154.667-142.667M1745.333 1255.556c37.334 0 52.44 28.444 52.44 45.333 0 16.89-14.213 47.111-47.106 47.111-32.894 0-59.56-18.667-59.56-41.777 0-23.111 20.453-50.667 54.226-50.667M2045.92 544.933l53.84 81.627s5.627 8.533-4.027 14.893c-9.64 6.36-14.786-1.426-14.786-1.426l-54.32-82.36s-4.16-7.92 4.746-13.787c8.907-5.867 14.547 1.053 14.547 1.053M1446.24 549.28l-71.267 85.293s-7.453 8.92-14.346 3.16c-6.894-5.76-.094-13.893-.094-13.893l71.92-86.08s7-7.307 13.374-2c6.36 5.32.413 13.52.413 13.52M1521.387 577.2l-44.987 69.467s-5.747 9.213-13.96 3.893c-8.2-5.307-2.867-13.893-2.867-13.893l45.387-70.107s6.133-6.8 13.707-1.893c7.586 4.906 2.72 12.533 2.72 12.533M1597.427 593.173l-21.574 50.747s-2.946 6.72-12.08 2.84c-9.12-3.88-6.373-10.147-6.373-10.147l21.76-51.2s3.973-5.733 12.4-2.146c8.427 3.573 5.867 9.906 5.867 9.906M1961.733 586.747l21.667 46.973s3.933 6.44-4.293 10.227c-8.214 3.8-11.96-2.214-11.96-2.214l-21.867-47.386s-2.867-7.067 4.72-10.574c7.587-3.493 11.733 2.974 11.733 2.974" fill="#231f20"/><path d="M920.001 876.36H2544.24s25.533-1.053 25.533 31.52c0 32.56-25.533 31.507-25.533 31.507H920s-17.778-4.974-17.778-31.507c0-26.547 17.778-31.52 17.778-31.52" fill="#f8df0a"/><path d="M2556.893 452.893c104.88-16 143.107 49.774 143.107 100.44 0 50.667-32 110.227-110.227 112-78.213 1.774-115.546-46.226-115.546-46.226L2299.107 780c-5.334-77.333-53.334-145.773-53.334-145.773l128-113.787s-41.773-40.88-39.106-107.547c2.666-66.666 58.666-117.333 110.226-117.333 51.547 0 121.774 27.547 112 157.333M874.223 431.56C808.444 439.56 756 476 756 536.44c0 60.453 23.11 112 102.223 113.787 79.11 1.773 140.444-52.454 140.444-52.454l177.777 172.454c8-64.894 48.89-131.56 48.89-131.56L1084.888 503.56s41.778-47.12 40.888-96.893c-.888-49.774-41.777-109.334-120.888-110.227-79.112-.88-129.778 51.56-130.666 135.12M2404.893 1852.893c116.107 7.44 134.214-46.226 136.88-114.666 2.667-68.454-45.333-116.454-113.773-120.894-68.44-4.44-113.773 42.667-113.773 42.667l-253.334-255.107s34.667 71.107 37.334 250.667l112.88 114.667s-39.107 46.213-36.44 101.333c2.666 55.107 39.106 127.107 117.333 121.773 78.227-5.333 118.227-49.773 112.893-140.44M1020 1869.333c-14.667 101.334 30.667 148 113.333 148 82.667 0 122.667-80 126.667-142.666 4-62.667-41.333-105.334-41.333-105.334l132-121.333c20-144 64-237.333 64-237.333L1132 1669.333S1091.29 1616 1017.644 1616C944 1616 878.667 1660 876 1750.667c-2.667 90.666 66.667 126.666 144 118.666" fill="#fff"/></g></svg>